<svg xmlns="http://www.w3.org/2000/svg" width="1400" height="760" viewBox="0 0 1400 760" role="img" aria-labelledby="title desc">
  <title id="title">FieldBridge mechanism translation workflow</title>
  <desc id="desc">A scientific paper is converted into a portable mechanism, then used either to retrieve existing analogues or translate the mechanism into a new scientific field.</desc>
  <defs>
    <linearGradient id="green" x1="0" x2="1" y1="0" y2="1">
      <stop offset="0" stop-color="#65c76f"/>
      <stop offset="1" stop-color="#0f9b7a"/>
    </linearGradient>
    <linearGradient id="blue" x1="0" x2="1" y1="0" y2="1">
      <stop offset="0" stop-color="#3c92ff"/>
      <stop offset="1" stop-color="#705cff"/>
    </linearGradient>
    <linearGradient id="ink" x1="0" x2="1" y1="0" y2="1">
      <stop offset="0" stop-color="#16231f"/>
      <stop offset="1" stop-color="#31401e"/>
    </linearGradient>
    <filter id="shadow" x="-12%" y="-12%" width="124%" height="124%">
      <feDropShadow dx="0" dy="16" stdDeviation="20" flood-color="#17321e" flood-opacity="0.16"/>
    </filter>
    <marker id="arrowGreen" markerWidth="14" markerHeight="14" refX="11" refY="7" orient="auto" markerUnits="strokeWidth">
      <path d="M2,2 L12,7 L2,12 Z" fill="#148f70"/>
    </marker>
    <marker id="arrowBlue" markerWidth="14" markerHeight="14" refX="11" refY="7" orient="auto" markerUnits="strokeWidth">
      <path d="M2,2 L12,7 L2,12 Z" fill="#4f70ff"/>
    </marker>
    <style>
      .kicker { font: 800 16px Inter, Arial, sans-serif; fill: #148f70; letter-spacing: 1.7px; }
      .title { font: 800 52px Inter, Arial, sans-serif; fill: #111816; letter-spacing: 0; }
      .subtitle { font: 400 23px Inter, Arial, sans-serif; fill: #46514b; letter-spacing: 0; }
      .cardTitle { font: 800 23px Inter, Arial, sans-serif; fill: #15201c; letter-spacing: 0; }
      .cardText { font: 400 18px Inter, Arial, sans-serif; fill: #4d5852; letter-spacing: 0; }
      .small { font: 700 14px Inter, Arial, sans-serif; fill: #637067; letter-spacing: .4px; }
      .pillText { font: 800 13px Inter, Arial, sans-serif; fill: #ffffff; letter-spacing: .8px; }
      .formula { font: 600 18px "SFMono-Regular", Consolas, monospace; fill: #24342d; letter-spacing: 0; }
      .card { fill: #ffffff; stroke: #dfe8de; stroke-width: 1.4; rx: 14; filter: url(#shadow); }
      .softCard { fill: #f7fbf5; stroke: #e2ece0; stroke-width: 1.2; rx: 12; }
      .greenLine { fill: none; stroke: #148f70; stroke-width: 4; marker-end: url(#arrowGreen); }
      .blueLine { fill: none; stroke: #4f70ff; stroke-width: 4; marker-end: url(#arrowBlue); }
      .thin { fill: none; stroke: #d7e7d2; stroke-width: 2; }
    </style>
  </defs>

  <rect width="1400" height="760" fill="#ffffff"/>
  <circle cx="1210" cy="120" r="260" fill="#e9f8e6"/>
  <circle cx="110" cy="680" r="300" fill="#eef4ff"/>
  <path d="M0 612 C210 560 290 640 480 602 C650 568 720 476 890 512 C1110 558 1198 658 1400 588 L1400 760 L0 760 Z" fill="#f6faf3"/>

  <text x="70" y="78" class="kicker">FIELD BRIDGE / HYPERION PUBLIC WORKBENCH</text>
  <text x="70" y="142" class="title">Nouns stay local. Mechanisms travel.</text>
  <text x="72" y="185" class="subtitle">Hyperion-style routes are portable; FieldBridge translates them into new fields.</text>

  <rect x="74" y="246" width="290" height="164" class="card"/>
  <text x="108" y="294" class="cardTitle">Source paper</text>
  <text x="108" y="329" class="cardText">LaTeX, abstract, equation,</text>
  <text x="108" y="356" class="cardText">paper fragment, or claim.</text>
  <rect x="108" y="374" width="78" height="27" rx="13.5" fill="#17231f"/>
  <text x="126" y="393" class="pillText">INPUT</text>

  <path d="M365 328 C420 328 446 328 502 328" class="greenLine"/>

  <rect x="508" y="214" width="360" height="232" class="card"/>
  <text x="546" y="264" class="cardTitle">Portable route</text>
  <text x="546" y="300" class="cardText">The field nouns are stripped away.</text>
  <text x="546" y="328" class="cardText">What remains is an operational form:</text>
  <rect x="546" y="352" width="276" height="50" rx="10" fill="#f3f8f0" stroke="#dbe9d8"/>
  <text x="568" y="383" class="formula">q, u, B -> y  + controls</text>
  <g transform="translate(546 418)">
    <rect width="86" height="27" rx="13.5" fill="url(#green)"/>
    <rect x="96" width="92" height="27" rx="13.5" fill="url(#green)"/>
    <rect x="198" width="98" height="27" rx="13.5" fill="url(#green)"/>
    <text x="17" y="19" class="pillText">FLOW</text>
    <text x="111" y="19" class="pillText">CLOSURE</text>
    <text x="217" y="19" class="pillText">BOUNDARY</text>
  </g>

  <path d="M868 292 C940 236 990 208 1072 206" class="blueLine"/>
  <path d="M868 378 C940 448 992 500 1072 510" class="greenLine"/>

  <rect x="1074" y="140" width="264" height="166" class="card"/>
  <text x="1106" y="188" class="cardTitle">Supporting route</text>
  <text x="1106" y="224" class="cardText">Find where the same route</text>
  <text x="1106" y="251" class="cardText">already appeared.</text>
  <rect x="1106" y="268" width="100" height="27" rx="13.5" fill="url(#blue)"/>
  <text x="1124" y="287" class="pillText">SEARCH</text>

  <rect x="1074" y="454" width="264" height="196" class="card"/>
  <text x="1106" y="502" class="cardTitle">Main route: translate</text>
  <text x="1106" y="538" class="cardText">What would this become</text>
  <text x="1106" y="565" class="cardText">in materials, biology,</text>
  <text x="1106" y="592" class="cardText">collectives, or patents?</text>
  <rect x="1106" y="610" width="126" height="27" rx="13.5" fill="url(#green)"/>
  <text x="1125" y="629" class="pillText">CONSTRUCT</text>

  <rect x="74" y="492" width="292" height="120" class="softCard"/>
  <text x="108" y="536" class="cardTitle">Not keyword similarity</text>
  <text x="108" y="570" class="cardText">The target is a state variable,</text>
  <text x="108" y="597" class="cardText">equation, measurement, and control.</text>

  <rect x="508" y="520" width="360" height="126" class="softCard"/>
  <text x="546" y="563" class="cardTitle">No LLM required</text>
  <text x="546" y="598" class="cardText">Transport, closure, spectral/operator,</text>
  <text x="546" y="625" class="cardText">boundary, incompatibility, protocol.</text>

  <path d="M214 480 C240 448 272 432 330 426" class="thin"/>
  <path d="M688 500 C690 480 690 468 690 450" class="thin"/>

  <text x="70" y="704" class="small">Public starter engine: transparent field packs and deterministic route/fiber fingerprints. Larger Hyperion-style databases can add high-dimensional fingerprints and corpus witnesses.</text>
</svg>
